# xmcd
#
# Track frame offsets: 
#        150
#        35477
#        105690
#        128937
#        172672
#        222652
#        271080
#        296695
#
# Disc length: 4631 seconds
#
# Revision: 3
# Processed by: cddbd v1.5.2PL0 Copyright (c) Steve Scherf et al.
# Submitted via: ExactAudioCopy v1.0b3
#
DISCID=74121508
DTITLE=Mozart W. A. - Mozart. The Symphonies_CD 11
DYEAR=1987
DGENRE=Classical
TTITLE0=Sym. No.40 In G Minor, K.550, 01 Molto allegro
TTITLE1=Sym. No.40 In G Minor, K.550, 02 Andante
TTITLE2=Sym. No.40 In G Minor, K.550, 03 Menuetto (Allegretto) - Trio
TTITLE3=Sym. No.40 In G Minor, K.550, 04 Finale (Allegro assai)
TTITLE4=Sym. No. 41 in C major, K.551 "Jupiter" 01 Allegro vivace
TTITLE5=Sym. No. 41 in C major, K.551 "Jupiter" 02 Andante cantabile
TTITLE6=Sym. No. 41 in C major, K.551 "Jupiter" 03 Menuetto (Allegrett
TTITLE6=o)
TTITLE7=Sym. No. 41 in C major, K.551 "Jupiter" 04 Molto allegro
EXTD=
EXTT0=
EXTT1=
EXTT2=
EXTT3=
EXTT4=
EXTT5=
EXTT6=
EXTT7=
PLAYORDER=
